<svg width="175" height="40" viewBox="0 0 175 40" fill="none" xmlns="http://www.w3.org/2000/svg">
<path opacity="0.47" d="M29.151 18.373L22.13 13.743L2.886 1.90098C4.33683 3.52999 5.47 5.41612 6.227 7.46198C6.73316 8.78824 7.08514 10.1683 7.276 11.575L21.7 20.618C21.9577 20.7961 22.134 21.0692 22.1903 21.3773C22.2465 21.6855 22.1781 22.0033 22 22.261L21.946 22.33L21.892 22.392L21.83 22.454H21.8L21.7 22.531L7.762 31.019C7.67116 31.0811 7.56892 31.1245 7.46118 31.1469C7.35345 31.1692 7.24235 31.17 7.13431 31.1492C7.02627 31.1284 6.92342 31.0863 6.83172 31.0255C6.74001 30.9647 6.66125 30.8864 6.6 30.795C6.50545 30.656 6.45429 30.4921 6.453 30.324V10.965C6.25798 9.77034 5.94512 8.59795 5.519 7.46498C4.51412 4.66078 2.76326 2.18386 0.455 0.300977L0 0.000976562V36.435C0.00148232 37.0786 0.176856 37.7099 0.507581 38.2621C0.838306 38.8143 1.31209 39.2669 1.87884 39.572C2.4456 39.8771 3.08426 40.0234 3.72731 39.9954C4.37036 39.9674 4.9939 39.7662 5.532 39.413L29.151 24.692C29.6746 24.3478 30.1045 23.8789 30.4019 23.3274C30.6994 22.7759 30.8551 22.1591 30.8551 21.5325C30.8551 20.9059 30.6994 20.2891 30.4019 19.7376C30.1045 19.1861 29.6746 18.7172 29.151 18.373Z" fill="#5690FF"/>
<path d="M29.151 18.373L22.13 13.743C22.6896 14.1973 23.1538 14.7579 23.4957 15.3925C23.8377 16.027 24.0507 16.723 24.1224 17.4402C24.1942 18.1575 24.1233 18.8819 23.9139 19.5716C23.7044 20.2613 23.3605 20.9028 22.902 21.459C22.6308 21.7953 22.3199 22.0975 21.976 22.359L21.922 22.421L21.86 22.483L21.76 22.56L11.729 28.47L7.87 31.081C7.77795 31.1528 7.67185 31.2044 7.55857 31.2325C7.44529 31.2607 7.32735 31.2647 7.21242 31.2443C7.09749 31.2239 6.98812 31.1797 6.8914 31.1143C6.79468 31.049 6.71278 30.964 6.651 30.865C6.55645 30.726 6.50529 30.5621 6.504 30.394V11.001C6.29549 9.79249 5.96445 8.60838 5.516 7.46698C4.51227 4.6624 2.76245 2.18479 0.455 0.300977L0 0.000976562V36.435C0.00148232 37.0786 0.176856 37.7099 0.507581 38.2621C0.838306 38.8143 1.31209 39.2669 1.87884 39.572C2.4456 39.8771 3.08426 40.0234 3.72731 39.9954C4.37036 39.9674 4.9939 39.7662 5.532 39.413L29.151 24.692C29.6746 24.3478 30.1045 23.8789 30.4019 23.3274C30.6994 22.7759 30.8551 22.1591 30.8551 21.5325C30.8551 20.9059 30.6994 20.2891 30.4019 19.7376C30.1045 19.1861 29.6746 18.7172 29.151 18.373Z" fill="url(#paint0_linear_1_38390)"/>
<path d="M50.793 27.4457H47.406C47.182 27.4457 47.092 27.2607 46.996 27.0657L46.966 27.0057L43.98 21.4027H43.733C43.492 21.4027 43.192 21.3897 42.902 21.3777C42.633 21.3667 42.379 21.3557 42.19 21.3557V27.0027C42.1858 27.1181 42.1381 27.2276 42.0564 27.3092C41.9748 27.3908 41.8653 27.4385 41.75 27.4427H38.865C38.7496 27.4385 38.6402 27.3908 38.5585 27.3092C38.4769 27.2276 38.4292 27.1181 38.425 27.0027V12.1607C38.425 11.3937 38.732 11.2117 39.425 11.0957C40.9126 10.9026 42.4109 10.8047 43.911 10.8027C48.325 10.8027 50.57 12.5447 50.57 15.9807V16.2657C50.6262 17.2114 50.3797 18.1503 49.8664 18.9465C49.3531 19.7426 48.5995 20.3546 47.715 20.6937L51.056 26.9357C51.094 27.0131 51.1174 27.0969 51.125 27.1827C51.125 27.3557 51.011 27.4457 50.793 27.4457ZM43.903 14.0197C43.597 14.0197 42.45 14.0657 42.175 14.0887V18.3417L43.718 18.3877C44.5504 18.4631 45.3867 18.2946 46.125 17.9027C46.367 17.7144 46.5567 17.4671 46.6757 17.1845C46.7948 16.9019 46.8393 16.5935 46.805 16.2887V15.9887C46.805 14.6817 45.825 14.0197 43.903 14.0197Z" fill="#363F5A"/>
<path d="M58.818 27.6566H58.51C57.1419 27.6953 55.8035 27.253 54.728 26.4066C54.1177 25.8476 53.6414 25.1582 53.3342 24.3896C53.0271 23.6211 52.8971 22.7933 52.954 21.9676V20.4246C52.8795 18.8709 53.4104 17.3489 54.435 16.1786C54.9765 15.6473 55.6218 15.2334 56.3305 14.9629C57.0393 14.6925 57.7962 14.5711 58.554 14.6066C59.3106 14.5748 60.0651 14.7062 60.7664 14.9919C61.4676 15.2777 62.0991 15.7111 62.618 16.2626C63.5938 17.4246 64.1015 18.9085 64.042 20.4246V21.7066C63.977 22.0456 63.791 22.2316 63.517 22.2316H56.454V22.2776C56.4088 22.5966 56.4367 22.9217 56.5355 23.2284C56.6343 23.535 56.8015 23.8152 57.0245 24.0478C57.2475 24.2804 57.5203 24.4593 57.8225 24.571C58.1247 24.6827 58.4484 24.7243 58.769 24.6926C60.146 24.6926 62.115 24.5866 63.02 24.4926H63.089C63.358 24.4926 63.506 24.6186 63.506 24.8476V26.5306C63.506 26.8696 63.439 27.0356 63.043 27.1246C61.6626 27.4786 60.2431 27.6573 58.818 27.6566ZM58.494 17.4616C57.218 17.4616 56.457 18.3786 56.457 19.9146V19.9996H60.484V19.9146C60.5274 19.257 60.3369 18.6052 59.946 18.0746C59.7663 17.869 59.5422 17.7069 59.2907 17.6007C59.0391 17.4945 58.7667 17.447 58.494 17.4616Z" fill="#363F5A"/>
<path d="M76.657 27.4473H73.941C73.8222 27.4414 73.7103 27.3901 73.6284 27.3039C73.5465 27.2177 73.5009 27.1032 73.501 26.9843V19.1993C73.501 18.2273 73.347 17.5403 72.201 17.5403H71.086C69.936 17.5403 69.786 18.2273 69.786 19.1993V27.0073C69.7862 27.1262 69.7405 27.2407 69.6586 27.3269C69.5767 27.4131 69.4648 27.4644 69.346 27.4703H66.611C66.495 27.4624 66.3867 27.4096 66.3088 27.3232C66.231 27.2368 66.1898 27.1235 66.194 27.0073V19.1993C66.194 16.1123 67.9 14.5693 71.086 14.5693H72.194C75.381 14.5693 77.086 16.1123 77.086 19.1993V27.0073C77.0841 27.1215 77.0386 27.2307 76.9588 27.3125C76.8791 27.3943 76.7711 27.4425 76.657 27.4473Z" fill="#363F5A"/>
<path d="M84.813 27.6552C84.0604 27.7025 83.3062 27.5947 82.597 27.3386C81.8878 27.0825 81.2387 26.6834 80.69 26.1662C79.6783 25.0193 79.1632 23.5177 79.258 21.9912V20.2552C79.258 16.6032 81.231 14.5922 84.813 14.5922C85.4201 14.6096 86.0258 14.6616 86.627 14.7482V10.8882C86.6312 10.7731 86.6788 10.6637 86.7602 10.5821C86.8416 10.5005 86.9508 10.4527 87.066 10.4482H89.721C89.8398 10.4481 89.9541 10.4938 90.0401 10.5757C90.1262 10.6576 90.1773 10.7696 90.183 10.8882V26.3972C90.16 26.7862 90.059 26.9392 89.505 27.0752C87.968 27.4455 86.3939 27.6401 84.813 27.6552ZM84.783 17.5622C84.4756 17.5365 84.1671 17.5943 83.89 17.7297C83.6128 17.8651 83.3775 18.073 83.209 18.3312C82.893 18.9239 82.7485 19.593 82.792 20.2632V21.9912C82.792 23.8492 83.425 24.7152 84.783 24.7152C85.3896 24.7142 85.9955 24.6704 86.596 24.5842V17.6702C85.9942 17.5997 85.3889 17.5637 84.783 17.5622Z" fill="#363F5A"/>
<path d="M98.316 27.6566H98.008C96.6399 27.6953 95.3015 27.253 94.226 26.4066C93.6157 25.8476 93.1393 25.1582 92.8322 24.3896C92.5251 23.6211 92.3951 22.7933 92.452 21.9676V20.4246C92.3775 18.8709 92.9084 17.3489 93.933 16.1786C94.4744 15.6473 95.1197 15.2334 95.8285 14.9629C96.5372 14.6925 97.2942 14.5711 98.052 14.6066C98.8065 14.5747 99.559 14.7061 100.258 14.9919C100.957 15.2778 101.586 15.7112 102.102 16.2626C103.072 17.4274 103.575 18.9103 103.514 20.4246V21.7066C103.526 21.7766 103.524 21.8483 103.506 21.9172C103.489 21.9861 103.458 22.0507 103.414 22.1066C103.371 22.1501 103.319 22.1839 103.262 22.2056C103.205 22.2274 103.144 22.2366 103.083 22.2326H96.024V22.2786C95.9788 22.5976 96.0067 22.9227 96.1055 23.2294C96.2043 23.536 96.3715 23.8162 96.5945 24.0488C96.8174 24.2814 97.0903 24.4603 97.3925 24.572C97.6947 24.6837 98.0184 24.7253 98.339 24.6936C99.716 24.6936 101.685 24.5876 102.59 24.4936C102.859 24.4936 103.007 24.6196 103.007 24.8486V26.5316C103.007 26.8706 102.94 27.0366 102.544 27.1256C101.163 27.4795 99.742 27.6579 98.316 27.6566ZM98.062 17.4616C96.786 17.4616 96.025 18.3786 96.025 19.9146V19.9996H100.052V19.9146C100.095 19.257 99.9049 18.6052 99.514 18.0746C99.3343 17.869 99.1102 17.7069 98.8586 17.6007C98.6071 17.4945 98.3346 17.447 98.062 17.4616Z" fill="#363F5A"/>
<path d="M111.448 17.5813C110.782 17.5747 110.116 17.6185 109.457 17.7123V27.0123C109.457 27.1312 109.412 27.2456 109.33 27.3318C109.248 27.418 109.136 27.4694 109.017 27.4753H106.34C106.219 27.4665 106.105 27.4141 106.02 27.3279C105.935 27.2416 105.884 27.1273 105.877 27.0063V15.9423C105.877 15.6333 106.054 15.4093 106.564 15.2323C108.147 14.7464 109.801 14.5297 111.456 14.5913C111.718 14.5913 112.05 14.6993 112.05 15.0083V17.1533C112.042 17.4003 111.877 17.5813 111.448 17.5813Z" fill="#363F5A"/>
<path d="M120.43 17.4475H117.417V27.0075C117.408 27.1274 117.357 27.2403 117.272 27.3253C117.187 27.4103 117.074 27.4619 116.954 27.4705H114.28C114.16 27.4618 114.047 27.4102 113.962 27.3249C113.877 27.2397 113.825 27.1266 113.817 27.0065V13.8895C113.817 10.8035 115.9 10.1475 118.13 10.1475C118.938 10.1639 119.745 10.2307 120.545 10.3475C120.792 10.3935 120.877 10.4785 120.877 10.6095V12.4695C120.877 12.7165 120.792 12.8245 120.568 12.8245H118.254C117.567 12.8245 117.413 13.2415 117.413 13.8895V14.7775H120.417C120.533 14.7812 120.642 14.8288 120.724 14.9105C120.806 14.9922 120.853 15.102 120.857 15.2175V16.9765C120.863 17.0945 120.823 17.2102 120.744 17.2985C120.665 17.3867 120.555 17.4402 120.437 17.4475H120.43Z" fill="#363F5A"/>
<path d="M127.952 27.6467C127.195 27.6868 126.437 27.5693 125.727 27.3016C125.018 27.034 124.371 26.622 123.829 26.0917C122.831 24.9268 122.319 23.4234 122.397 21.8917V20.3477C122.319 18.8159 122.831 17.3125 123.829 16.1477C124.371 15.6172 125.018 15.2049 125.727 14.9371C126.437 14.6693 127.194 14.5516 127.952 14.5917C128.708 14.5515 129.464 14.6694 130.172 14.9378C130.88 15.2062 131.525 15.6193 132.064 16.1507C133.056 17.3183 133.564 18.8207 133.485 20.3507V21.8917C133.564 23.4216 133.056 24.9239 132.064 26.0917C131.524 26.6221 130.88 27.0343 130.172 27.3021C129.464 27.5698 128.708 27.6871 127.952 27.6467ZM127.952 17.6467C126.652 17.6467 125.961 18.5807 125.961 20.3467V21.8917C125.915 22.6064 126.096 23.3174 126.477 23.9237C126.647 24.1511 126.871 24.3331 127.129 24.4534C127.386 24.5738 127.669 24.6288 127.953 24.6137C129.24 24.6137 129.92 23.6717 129.92 21.8897V20.3477C129.92 18.5807 129.239 17.6467 127.952 17.6467Z" fill="#363F5A"/>
<path d="M141.363 17.5813C140.697 17.5747 140.031 17.6185 139.372 17.7123V27.0123C139.372 27.1312 139.327 27.2456 139.245 27.3318C139.163 27.418 139.051 27.4694 138.932 27.4753H136.255C136.134 27.4665 136.02 27.4141 135.935 27.3279C135.85 27.2416 135.799 27.1273 135.792 27.0063V15.9423C135.792 15.6333 135.969 15.4093 136.479 15.2323C138.062 14.7464 139.716 14.5297 141.371 14.5913C141.633 14.5913 141.965 14.6993 141.965 15.0083V17.1533C141.972 17.4003 141.792 17.5813 141.363 17.5813Z" fill="#363F5A"/>
<path d="M149.372 27.6566H149.064C147.696 27.6953 146.358 27.253 145.282 26.4066C144.672 25.8476 144.195 25.1582 143.888 24.3896C143.581 23.6211 143.451 22.7933 143.508 21.9676V20.4246C143.434 18.8709 143.964 17.3489 144.989 16.1786C145.53 15.6473 146.176 15.2334 146.885 14.9629C147.593 14.6925 148.35 14.5711 149.108 14.6066C149.863 14.5747 150.615 14.7061 151.314 14.9919C152.013 15.2778 152.642 15.7112 153.158 16.2626C154.128 17.4274 154.631 18.9103 154.57 20.4246V21.7066C154.568 21.8409 154.515 21.9695 154.422 22.0667C154.33 22.164 154.204 22.2228 154.07 22.2316H147.008V22.2776C146.963 22.5966 146.991 22.9217 147.09 23.2284C147.188 23.535 147.356 23.8152 147.579 24.0478C147.801 24.2804 148.074 24.4593 148.377 24.571C148.679 24.6827 149.002 24.7243 149.323 24.6926C150.7 24.6926 152.669 24.5866 153.574 24.4926H153.643C153.912 24.4926 154.06 24.6186 154.06 24.8476V26.5306C154.06 26.8696 153.993 27.0356 153.597 27.1246C152.217 27.4786 150.797 27.6573 149.372 27.6566ZM149.048 17.4616C147.772 17.4616 147.011 18.3786 147.011 19.9146V19.9996H151.038V19.9146C151.081 19.257 150.891 18.6052 150.5 18.0746C150.32 17.869 150.096 17.7069 149.845 17.6007C149.593 17.4945 149.321 17.447 149.048 17.4616Z" fill="#363F5A"/>
<path d="M160.992 27.6468C159.635 27.6435 158.283 27.4804 156.964 27.1608C156.845 27.1407 156.737 27.0781 156.66 26.9845C156.583 26.8909 156.543 26.7727 156.547 26.6518V24.8618C156.545 24.7534 156.586 24.6487 156.661 24.5705C156.736 24.4923 156.839 24.4471 156.947 24.4448H157.047C158.247 24.5988 160.133 24.7538 160.812 24.7538C161.877 24.7538 162.112 24.4688 162.112 23.8898C162.112 23.5578 161.912 23.3108 161.294 22.9638L158.423 21.3038C157.826 20.9927 157.326 20.5226 156.978 19.9454C156.631 19.3682 156.45 18.7063 156.455 18.0328C156.455 15.7978 157.937 14.5978 160.992 14.5978C162.324 14.5813 163.651 14.753 164.935 15.1078C165.055 15.1271 165.164 15.1896 165.241 15.2835C165.319 15.3774 165.359 15.4962 165.355 15.6178V17.4078C165.355 17.6698 165.224 17.8248 165 17.8248H164.912C163.694 17.6643 162.468 17.5692 161.239 17.5398C160.375 17.5398 160.066 17.6708 160.066 18.1798C160.066 18.5118 160.313 18.6888 160.753 18.9518L163.5 20.4978C165.336 21.5628 165.738 22.7118 165.738 23.9078C165.73 26.0108 164.225 27.6468 160.992 27.6468Z" fill="#363F5A"/>
<path d="M174.556 17.4474H171.524V24.0214C171.524 24.7934 171.879 24.9314 172.824 24.9314H174.487C174.772 24.9314 174.95 25.0624 174.95 25.3094V27.0094C174.95 27.2564 174.796 27.4094 174.51 27.4494C173.631 27.5814 172.744 27.6483 171.856 27.6494C169.379 27.6474 167.913 26.8764 167.913 23.9984V12.8844C167.922 12.7711 167.972 12.6649 168.053 12.5848C168.133 12.5048 168.24 12.456 168.353 12.4474L171.053 11.9844H171.123C171.231 11.9975 171.331 12.0492 171.405 12.13C171.478 12.2108 171.52 12.3152 171.523 12.4244V14.7394H174.556C174.671 14.7431 174.781 14.7907 174.863 14.8724C174.945 14.9541 174.992 15.0639 174.996 15.1794V16.9794C174.999 17.0381 174.991 17.097 174.971 17.1524C174.951 17.2079 174.921 17.259 174.882 17.3027C174.842 17.3465 174.795 17.382 174.741 17.4073C174.688 17.4327 174.631 17.4473 174.572 17.4504L174.556 17.4474Z" fill="#363F5A"/>
<defs>
<linearGradient id="paint0_linear_1_38390" x1="0" y1="19.9999" x2="30.8551" y2="19.9999" gradientUnits="userSpaceOnUse">
<stop stop-color="#5690FF" stop-opacity="0.988"/>
<stop offset="1" stop-color="#0052E0"/>
</linearGradient>
</defs>
</svg>
