<svg width="24" height="24" viewBox="0 0 24 24" fill="none" xmlns="http://www.w3.org/2000/svg">
<path d="M10.9212 14.7779C10.8862 14.7439 10.7372 14.6159 10.6152 14.4969C9.62582 13.4775 8.81003 12.303 8.2002 11.0199C8.10243 10.7942 8.03517 10.5564 8.0002 10.3129C7.99995 10.126 8.0449 9.94174 8.1312 9.77591C8.25466 9.56201 8.44514 9.39472 8.6732 9.29991C8.88284 9.23678 9.09584 9.18537 9.3112 9.14591C10.0691 9.0364 10.8345 8.98758 11.6002 8.99991C12.3386 8.9935 13.0765 9.03627 13.8092 9.12791C14.0808 9.17287 14.3484 9.23976 14.6092 9.32791C14.7859 9.41647 14.9346 9.55219 15.0389 9.72003C15.1432 9.88787 15.199 10.0813 15.2002 10.2789V10.3129C15.1566 10.5875 15.0741 10.8546 14.9552 11.1059C14.3488 12.3593 13.5453 13.5072 12.5752 14.5059C12.4709 14.6093 12.36 14.7059 12.2432 14.7949C12.0566 14.9308 11.831 15.0027 11.6002 14.9999C11.3544 15.0025 11.1145 14.9245 10.9172 14.7779" fill="#545F7E"/>
</svg>
