<svg width="16" height="14" viewBox="0 0 16 14" fill="none" xmlns="http://www.w3.org/2000/svg">
<path d="M15.7111 7.25L15.7042 7.27295V7.27881V7.29199V7.29785C15.6597 7.42561 15.5878 7.54233 15.4933 7.63916L10.214 12.9731C10.1311 13.0588 10.0318 13.1265 9.92201 13.1728C9.81223 13.2192 9.69355 13.2434 9.57436 13.2432C9.45423 13.2429 9.33535 13.2183 9.22475 13.1714C9.11414 13.1245 9.01449 13.0564 8.9308 12.9702C8.77805 12.8144 8.68545 12.6093 8.67006 12.3916C8.65467 12.1739 8.7175 11.958 8.84682 11.7822L8.85658 11.769L8.92104 11.6938C8.92104 11.6938 8.92771 11.6842 8.93471 11.6812L12.6681 7.90478L1.74721 7.90478C1.51801 7.90041 1.29794 7.81047 1.13198 7.65234C0.966007 7.49421 0.866174 7.2795 0.850725 7.05078C0.835277 6.82206 0.905771 6.596 1.04897 6.41699C1.19216 6.23798 1.39764 6.11913 1.62416 6.08398H1.63979L1.73061 6.07812L12.6525 6.07812L8.92006 2.30176C8.75578 2.14049 8.65867 1.92334 8.64858 1.69336C8.63849 1.46338 8.71585 1.23802 8.86537 1.06299C9.01489 0.887953 9.22551 0.775966 9.45424 0.749998C9.68297 0.72403 9.91284 0.785788 10.0978 0.92285L10.1115 0.933104L10.1857 0.998045L10.1984 1.01123L15.4777 6.34521C15.6486 6.51679 15.7451 6.74905 15.7453 6.99121C15.746 7.0787 15.7344 7.16567 15.7111 7.25Z" fill="#3271E6"/>
</svg>
