<svg width="24" height="24" viewBox="0 0 24 24" fill="none" xmlns="http://www.w3.org/2000/svg">
<mask id="mask0_1_38420" style="mask-type:luminance" maskUnits="userSpaceOnUse" x="-1" y="0" width="25" height="24">
<path d="M23.9966 12C23.9966 5.37258 18.624 0 11.9966 0C5.36916 0 -0.00341797 5.37258 -0.00341797 12C-0.00341797 18.6274 5.36916 24 11.9966 24C18.624 24 23.9966 18.6274 23.9966 12Z" fill="white"/>
</mask>
<g mask="url(#mask0_1_38420)">
<path d="M-0.00341797 0H23.9966V24H-0.00341797V0Z" fill="#012169"/>
<path d="M23.9966 0V3L15.0902 12L23.9966 20.7656V24H20.8558L11.903 15.1872L3.18378 24H-0.00341797V20.8128L8.71658 12.0472L-0.00341797 3.4688V0H2.90298L11.903 8.8128L20.6214 0H23.9966Z" fill="white"/>
<path d="M8.62138 15.1872L9.13738 16.7808L1.96538 24H-0.00341797V23.8592L8.62138 15.1872ZM14.4342 14.6272L16.9654 15.0024L23.9966 21.8904V24L14.4342 14.6272ZM23.9966 0L14.9966 9.1872L14.8094 7.1248L21.8366 0H23.9966ZM-0.00341797 0.0472L9.04378 8.9064L6.27818 8.5312L-0.00341797 2.2968V0.0472Z" fill="#C8102E"/>
<path d="M8.24698 0V24H15.747V0H8.24698ZM-0.00341797 8.2504V15.7504H23.9966V8.2504H-0.00341797Z" fill="white"/>
<path d="M-0.00341797 9.7504V14.2504H23.9966V9.7504H-0.00341797ZM9.74698 0V24H14.247V0H9.74698Z" fill="#C8102E"/>
</g>
</svg>
