<svg width="19" height="20" viewBox="0 0 19 20" fill="none" xmlns="http://www.w3.org/2000/svg">
<path d="M12.5438 19.0269H5.74383C4.24133 19.0258 2.80062 18.4288 1.73782 17.3667C0.675023 16.3047 0.0769475 14.8644 0.0748291 13.3619L0.0748291 6.5619C0.0774766 5.06002 0.67568 3.6205 1.73824 2.55907C2.80079 1.49764 4.24095 0.900959 5.74283 0.899902L12.5428 0.899902C14.045 0.901224 15.4853 1.49826 16.5478 2.56007C17.6104 3.62187 18.2084 5.06176 18.2108 6.5639V13.3639C18.2082 14.8657 17.6101 16.3052 16.5478 17.3667C15.4855 18.4283 14.0456 19.0253 12.5438 19.0269ZM9.14383 5.4269C8.24765 5.4267 7.37154 5.69221 6.62623 6.18985C5.88093 6.68749 5.29989 7.39493 4.95657 8.22274C4.61326 9.05054 4.52308 9.96155 4.69743 10.8406C4.87178 11.7197 5.30283 12.5273 5.9361 13.1614C6.56938 13.7955 7.37643 14.2276 8.25525 14.4031C9.13407 14.5787 10.0452 14.4897 10.8735 14.1475C11.7017 13.8052 12.4099 13.2251 12.9086 12.4805C13.4072 11.7358 13.6738 10.8601 13.6748 9.9639C13.6732 8.7626 13.1954 7.61094 12.346 6.7614C11.4967 5.91186 10.3451 5.43375 9.14383 5.4319V5.4269ZM14.0188 4.4829C13.9002 4.4829 13.7842 4.51809 13.6855 4.58402C13.5868 4.64995 13.5099 4.74366 13.4645 4.85329C13.4191 4.96293 13.4072 5.08357 13.4304 5.19996C13.4535 5.31635 13.5107 5.42325 13.5946 5.50717C13.6785 5.59108 13.7854 5.64822 13.9018 5.67137C14.0182 5.69452 14.1388 5.68264 14.2484 5.63723C14.3581 5.59182 14.4518 5.51491 14.5177 5.41624C14.5836 5.31757 14.6188 5.20157 14.6188 5.0829C14.6175 4.92447 14.5536 4.77299 14.441 4.66151C14.3284 4.55004 14.1763 4.48763 14.0178 4.4879L14.0188 4.4829ZM9.14383 12.7999C8.58384 12.8001 8.03636 12.6343 7.5706 12.3234C7.10483 12.0125 6.74169 11.5705 6.52707 11.0533C6.31246 10.536 6.256 9.9668 6.36483 9.41749C6.47367 8.86818 6.74292 8.36346 7.13854 7.96714C7.53416 7.57082 8.0384 7.30069 8.58752 7.19088C9.13664 7.08108 9.70598 7.13653 10.2236 7.35023C10.7412 7.56394 11.1838 7.9263 11.4955 8.39151C11.8072 8.85673 11.974 9.40391 11.9748 9.9639C11.9748 10.7152 11.6767 11.4358 11.146 11.9675C10.6152 12.4992 9.89512 12.7986 9.14383 12.7999Z" fill="#252E48"/>
</svg>
