<svg width="15" height="20" viewBox="0 0 15 20" fill="none" xmlns="http://www.w3.org/2000/svg">
<path d="M7.82082 0.900391C2.85282 0.900391 0.210815 4.08439 0.210815 7.55539C0.210815 9.16539 1.11082 11.1734 2.55082 11.8094C2.76982 11.9094 2.88882 11.8664 2.93682 11.6634C2.97982 11.5094 3.16882 10.7634 3.26082 10.4174C3.27759 10.3625 3.27929 10.3041 3.26574 10.2483C3.2522 10.1926 3.2239 10.1415 3.18382 10.1004C2.63155 9.38362 2.33009 8.50524 2.32582 7.60039C2.33941 6.94097 2.48645 6.29114 2.75807 5.6901C3.02969 5.08907 3.42026 4.54929 3.90621 4.10334C4.39216 3.65738 4.96342 3.3145 5.58552 3.09538C6.20761 2.87626 6.86765 2.78543 7.52582 2.82839C10.3578 2.82839 12.3398 4.66839 12.3398 7.30039C12.3398 10.2744 10.7658 12.3324 8.72082 12.3324C8.46557 12.3536 8.20892 12.3141 7.97193 12.2169C7.73494 12.1197 7.52437 11.9678 7.35749 11.7735C7.19061 11.5792 7.07218 11.3481 7.01191 11.0991C6.95165 10.8502 6.95128 10.5905 7.01082 10.3414C7.4362 9.15179 7.7561 7.92707 7.96682 6.68139C7.98696 6.48149 7.96403 6.27959 7.89956 6.08929C7.83509 5.899 7.73059 5.72473 7.59309 5.57823C7.45559 5.43173 7.28829 5.3164 7.10247 5.24001C6.91664 5.16362 6.71659 5.12795 6.51582 5.13539C5.36382 5.13539 4.42882 6.27639 4.42882 7.80839C4.42187 8.37044 4.53934 8.92707 4.77282 9.43839C4.77282 9.43839 3.63382 14.0434 3.42182 14.9004C3.22823 16.2345 3.25661 17.5915 3.50582 18.9164C3.50779 18.9411 3.51742 18.9646 3.53338 18.9835C3.54934 19.0025 3.57082 19.016 3.59483 19.0222C3.61884 19.0284 3.64417 19.0269 3.6673 19.0179C3.69042 19.009 3.71018 18.9931 3.72382 18.9724C4.51195 17.8883 5.14349 16.6986 5.59982 15.4384C5.73982 14.9204 6.31682 12.8214 6.31682 12.8214C6.62129 13.2307 7.02112 13.5594 7.48157 13.779C7.94201 13.9986 8.44912 14.1024 8.95882 14.0814C12.4308 14.0814 14.9388 11.0304 14.9388 7.24339C14.9258 3.61639 11.8198 0.900391 7.82082 0.900391Z" fill="#252E48"/>
</svg>
