<svg width="24" height="20" viewBox="0 0 24 20" fill="none" xmlns="http://www.w3.org/2000/svg">
<path d="M23.2548 3.04231C22.4195 3.41268 21.5333 3.65572 20.6258 3.76331C21.5811 3.19109 22.2963 2.29181 22.6388 1.23231C21.7391 1.76474 20.7554 2.14041 19.7298 2.34331C19.0396 1.61018 18.127 1.12487 17.1332 0.962391C16.1395 0.799912 15.1198 0.96932 14.232 1.44442C13.3442 1.91953 12.6376 2.67387 12.2214 3.59082C11.8053 4.50777 11.7028 5.53627 11.9298 6.51731C10.1096 6.42603 8.32892 5.95305 6.70331 5.12905C5.07771 4.30505 3.64353 3.14845 2.49384 1.73431C1.90913 2.74207 1.7302 3.93469 1.99342 5.06968C2.25664 6.20466 2.94225 7.19678 3.91084 7.84431C3.1844 7.82017 2.47415 7.62341 1.83884 7.27031V7.32731C1.83934 8.38393 2.20492 9.40793 2.8737 10.226C3.54249 11.044 4.4734 11.6058 5.50884 11.8163C5.11561 11.9224 4.71012 11.9762 4.30284 11.9763C4.01341 11.9764 3.72468 11.948 3.44084 11.8913C3.73294 12.801 4.30223 13.5966 5.06898 14.1666C5.83573 14.7367 6.76157 15.0526 7.71684 15.0703C6.09479 16.3422 4.09207 17.0315 2.03084 17.0273C1.66595 17.0268 1.30137 17.0058 0.938843 16.9643C3.03111 18.3114 5.46742 19.0266 7.95584 19.0243C9.66982 19.0363 11.3691 18.7075 12.9549 18.057C14.5407 17.4066 15.9814 16.4474 17.1933 15.2353C18.4052 14.0233 19.3641 12.5824 20.0143 10.9965C20.6645 9.4106 20.9931 7.71128 20.9808 5.99731L20.9658 5.40431C21.8654 4.76184 22.6409 3.96155 23.2548 3.04231Z" fill="#252E48"/>
</svg>
