<svg width="33" height="32" viewBox="0 0 33 32" fill="none" xmlns="http://www.w3.org/2000/svg">
<g filter="url(#filter0_i_883_182)">
<rect x="0.0966797" width="32" height="32" rx="10" fill="url(#paint0_linear_883_182)"/>
<path d="M11.8041 23.0713C11.3032 23.0865 10.8046 22.9968 10.3404 22.8081C9.87609 22.6193 9.45635 22.3356 9.10802 21.9752C8.7597 21.6147 8.49047 21.1855 8.31759 20.7149C8.1447 20.2443 8.07198 19.7428 8.10406 19.2425V12.7573C8.07198 12.257 8.1447 11.7554 8.31759 11.2849C8.49047 10.8143 8.7597 10.385 9.10802 10.0246C9.45635 9.66411 9.87609 9.38042 10.3404 9.19166C10.8046 9.0029 11.3032 8.91323 11.8041 8.92841H17.0155C17.5165 8.91323 18.015 9.0029 18.4793 9.19166C18.9436 9.38042 19.3633 9.66411 19.7116 10.0246C20.06 10.385 20.3292 10.8143 20.5021 11.2849C20.6749 11.7554 20.7477 12.257 20.7156 12.7573V19.2425C20.7477 19.7428 20.6749 20.2443 20.5021 20.7149C20.3292 21.1855 20.06 21.6147 19.7116 21.9752C19.3633 22.3356 18.9436 22.6193 18.4793 22.8081C18.015 22.9968 17.5165 23.0865 17.0155 23.0713H11.8041ZM24.2588 20.8277L22.9274 20.1232C22.682 19.9883 22.4779 19.7891 22.3371 19.5469C22.1962 19.3048 22.124 19.0289 22.128 18.7487V13.2497C22.1236 12.9699 22.1957 12.6941 22.3366 12.4523C22.4775 12.2106 22.6818 12.0119 22.9274 11.8778L24.2601 11.172C24.452 11.0686 24.6684 11.0196 24.8861 11.0302C25.1037 11.0409 25.3143 11.1108 25.4952 11.2324C25.6826 11.359 25.8357 11.5302 25.9406 11.7306C26.0456 11.931 26.0992 12.1543 26.0967 12.3806V19.6192C26.0996 19.8456 26.0461 20.0693 25.9411 20.2699C25.8361 20.4706 25.6829 20.6419 25.4952 20.7686C25.297 20.9001 25.0647 20.9707 24.8269 20.9717C24.6286 20.9714 24.4334 20.922 24.2588 20.8277Z" fill="white"/>
</g>
<defs>
<filter id="filter0_i_883_182" x="0.0966797" y="0" width="35" height="34" filterUnits="userSpaceOnUse" color-interpolation-filters="sRGB">
<feFlood flood-opacity="0" result="BackgroundImageFix"/>
<feBlend mode="normal" in="SourceGraphic" in2="BackgroundImageFix" result="shape"/>
<feColorMatrix in="SourceAlpha" type="matrix" values="0 0 0 0 0 0 0 0 0 0 0 0 0 0 0 0 0 0 127 0" result="hardAlpha"/>
<feOffset dx="3" dy="2"/>
<feGaussianBlur stdDeviation="2"/>
<feComposite in2="hardAlpha" operator="arithmetic" k2="-1" k3="1"/>
<feColorMatrix type="matrix" values="0 0 0 0 1 0 0 0 0 1 0 0 0 0 1 0 0 0 0.25 0"/>
<feBlend mode="normal" in2="shape" result="effect1_innerShadow_883_182"/>
</filter>
<linearGradient id="paint0_linear_883_182" x1="16.0967" y1="0" x2="16.0967" y2="32" gradientUnits="userSpaceOnUse">
<stop stop-color="#47D6E2"/>
<stop offset="1" stop-color="#3271E6"/>
</linearGradient>
</defs>
</svg>
