<svg width="23" height="17" viewBox="0 0 23 17" fill="none" xmlns="http://www.w3.org/2000/svg">
<path d="M18.2039 16.9788H4.95988C3.71227 16.9774 2.51615 16.4812 1.63405 15.5989C0.751954 14.7166 0.255942 13.5204 0.254883 12.2728L0.254883 5.65275C0.256206 4.40532 0.752335 3.20935 1.63441 2.32728C2.51648 1.44521 3.71245 0.949077 4.95988 0.947754L18.2039 0.947754C19.4505 0.9504 20.6451 1.44711 21.5261 2.32904C22.4071 3.21097 22.9026 4.40618 22.9039 5.65275V12.2728C22.9028 13.5195 22.4075 14.715 21.5265 15.5971C20.6455 16.4793 19.4506 16.9761 18.2039 16.9788ZM8.71988 5.67275C8.65402 5.67302 8.59094 5.69937 8.54446 5.74604C8.49798 5.79271 8.47188 5.85589 8.47188 5.92175V12.0158C8.47215 12.0816 8.4985 12.1447 8.54517 12.1912C8.59183 12.2377 8.65502 12.2638 8.72088 12.2638C8.75787 12.2637 8.7944 12.2555 8.82788 12.2398L15.0219 9.28575C15.0639 9.26571 15.0994 9.23429 15.1245 9.19506C15.1496 9.15583 15.1631 9.11036 15.1636 9.06381C15.1642 9.01727 15.1516 8.97151 15.1274 8.93172C15.1033 8.89194 15.0684 8.85973 15.0269 8.83875L8.83288 5.69975C8.79787 5.68197 8.75915 5.67272 8.71988 5.67275Z" fill="#252E48"/>
</svg>
